<svg width="290" height="290" viewBox="0 0 290 290" fill="none" xmlns="http://www.w3.org/2000/svg">
<path d="M22.855 241.018C30.679 261.408 49.126 270.992 60.9081 277.117C107.365 301.26 193.56 288.721 244.633 244.119C256.587 233.681 300.37 188.733 286.98 115.096C275.139 49.9987 214.938 11.7951 163.766 6.98447C121.373 2.99988 65.1427 20.0074 45.4181 59.8321C33.017 84.8743 47.7759 92.7498 37.4954 149.419C28.5979 198.467 13.2792 216.077 22.855 241.018Z" fill="#FBEBE7"/>
<path fill-rule="evenodd" clip-rule="evenodd" d="M32.7402 249.18C32.7402 240.497 87.6888 233.46 155.471 233.46C223.251 233.46 278.2 240.497 278.2 249.18C278.2 257.864 223.251 264.904 155.471 264.904C87.6888 264.904 32.7402 257.864 32.7402 249.18Z" fill="#2B627B"/>
<path fill-rule="evenodd" clip-rule="evenodd" d="M32.7402 249.18C32.7402 240.497 87.6888 233.46 155.471 233.46C223.251 233.46 278.2 240.497 278.2 249.18C278.2 257.864 223.251 264.904 155.471 264.904C87.6888 264.904 32.7402 257.864 32.7402 249.18Z" fill="black" fill-opacity="0.2"/>
<path d="M75.26 233.596C71.5023 233.596 68.4435 230.621 68.4435 226.963L68.4434 77.0421C68.4434 73.3849 71.5021 70.4095 75.2598 70.4095L255.155 58.1901C258.914 58.1901 261.971 61.1655 261.971 64.8227V239.811C261.971 243.468 258.914 246.443 255.155 246.443L75.26 233.596Z" fill="#2B627B"/>
<path d="M75.26 233.596C71.5023 233.596 68.4435 230.621 68.4435 226.963L68.4434 77.0421C68.4434 73.3849 71.5021 70.4095 75.2598 70.4095L255.155 58.1901C258.914 58.1901 261.971 61.1655 261.971 64.8227V239.811C261.971 243.468 258.914 246.443 255.155 246.443L75.26 233.596Z" fill="black" fill-opacity="0.2"/>
<path d="M61.9541 245.226C58.0913 245.226 54.947 242.082 54.947 238.217V70.1588C54.947 66.2939 58.0913 63.1496 61.9541 63.1496L246.88 50.2364C250.744 50.2364 253.887 53.3807 253.887 57.2456V242.169C253.887 246.034 250.744 249.178 246.88 249.178L61.9541 245.226Z" fill="#2B627B"/>
<path d="M78.6963 235.193C74.8314 235.193 71.6892 232.049 71.6892 228.186L73.0712 82.1273C73.0712 78.2624 76.2134 75.1181 80.0783 75.1181L228.755 66.1924C232.618 66.1924 235.764 69.3367 235.764 73.2016V230.804C235.764 234.667 232.618 237.811 228.755 237.811L78.6963 235.193Z" fill="#2B627B"/>
<path d="M78.6963 235.193C74.8314 235.193 71.6892 232.049 71.6892 228.186L73.0712 82.1273C73.0712 78.2624 76.2134 75.1181 80.0783 75.1181L228.755 66.1924C232.618 66.1924 235.764 69.3367 235.764 73.2016V230.804C235.764 234.667 232.618 237.811 228.755 237.811L78.6963 235.193Z" fill="white" fill-opacity="0.3"/>
<path d="M224.04 117.677C222.284 117.677 220.856 116.248 220.856 114.494C220.856 112.738 222.284 111.31 224.04 111.31H240.396C242.15 111.31 243.578 112.738 243.578 114.494C243.578 116.248 242.15 117.677 240.396 117.677H224.04Z" fill="#2B627B"/>
<path d="M224.04 117.677C222.284 117.677 220.856 116.248 220.856 114.494C220.856 112.738 222.284 111.31 224.04 111.31H240.396C242.15 111.31 243.578 112.738 243.578 114.494C243.578 116.248 242.15 117.677 240.396 117.677H224.04Z" fill="white" fill-opacity="0.6"/>
<path d="M224.04 202.501C222.284 202.501 220.856 201.073 220.856 199.319C220.856 197.563 222.284 196.134 224.04 196.134H240.396C242.15 196.134 243.578 197.563 243.578 199.319C243.578 201.073 242.15 202.501 240.396 202.501H224.04Z" fill="#2B627B"/>
<path d="M224.04 202.501C222.284 202.501 220.856 201.073 220.856 199.319C220.856 197.563 222.284 196.134 224.04 196.134H240.396C242.15 196.134 243.578 197.563 243.578 199.319C243.578 201.073 242.15 202.501 240.396 202.501H224.04Z" fill="white" fill-opacity="0.6"/>
<path d="M154.131 186.947C133.598 186.947 116.892 170.24 116.892 149.707C116.892 129.174 133.598 112.47 154.131 112.47C174.664 112.47 191.369 129.174 191.369 149.707C191.369 170.24 174.664 186.947 154.131 186.947Z" fill="#2B627B"/>
<path d="M154.131 186.947C133.598 186.947 116.892 170.24 116.892 149.707C116.892 129.174 133.598 112.47 154.131 112.47C174.664 112.47 191.369 129.174 191.369 149.707C191.369 170.24 174.664 186.947 154.131 186.947Z" fill="white" fill-opacity="0.4"/>
<path fill-rule="evenodd" clip-rule="evenodd" d="M117.358 119.724C118.41 120.775 120.037 120.896 121.221 120.086L146.309 145.174C145.533 146.508 145.088 148.056 145.088 149.707C145.088 151.358 145.533 152.907 146.309 154.241L121.221 179.329C120.038 178.518 118.41 178.639 117.358 179.69L111.777 185.271C110.59 186.458 110.59 188.381 111.777 189.569L114.271 192.062C115.458 193.25 117.381 193.25 118.569 192.062L124.15 186.482C125.202 185.429 125.322 183.8 124.51 182.616L149.597 157.53C150.931 158.306 152.481 158.751 154.133 158.751C155.783 158.751 157.332 158.306 158.666 157.53L183.754 182.619C182.944 183.802 183.064 185.43 184.116 186.482L189.696 192.062C190.882 193.248 192.807 193.248 193.992 192.062L196.488 189.569C197.673 188.381 197.673 186.458 196.488 185.271L190.905 179.69C189.855 178.638 188.224 178.518 187.042 179.33L161.953 154.242C162.73 152.908 163.175 151.359 163.175 149.707C163.175 148.056 162.73 146.507 161.953 145.174L187.043 120.085C188.226 120.896 189.856 120.776 190.906 119.724L196.486 114.143C197.674 112.958 197.674 111.033 196.486 109.847L193.993 107.352C192.808 106.166 190.882 106.166 189.697 107.352L184.114 112.935C183.064 113.985 182.944 115.615 183.754 116.797L158.665 141.886C157.332 141.11 155.783 140.665 154.133 140.665C152.481 140.665 150.932 141.11 149.598 141.886L124.509 116.798C125.32 115.614 125.2 113.985 124.15 112.935L118.569 107.352C117.381 106.166 115.458 106.166 114.271 107.352L111.777 109.847C110.59 111.033 110.59 112.958 111.777 114.143L117.358 119.724Z" fill="#2B627B"/>
<path fill-rule="evenodd" clip-rule="evenodd" d="M117.358 119.724C118.41 120.775 120.037 120.896 121.221 120.086L146.309 145.174C145.533 146.508 145.088 148.056 145.088 149.707C145.088 151.358 145.533 152.907 146.309 154.241L121.221 179.329C120.038 178.518 118.41 178.639 117.358 179.69L111.777 185.271C110.59 186.458 110.59 188.381 111.777 189.569L114.271 192.062C115.458 193.25 117.381 193.25 118.569 192.062L124.15 186.482C125.202 185.429 125.322 183.8 124.51 182.616L149.597 157.53C150.931 158.306 152.481 158.751 154.133 158.751C155.783 158.751 157.332 158.306 158.666 157.53L183.754 182.619C182.944 183.802 183.064 185.43 184.116 186.482L189.696 192.062C190.882 193.248 192.807 193.248 193.992 192.062L196.488 189.569C197.673 188.381 197.673 186.458 196.488 185.271L190.905 179.69C189.855 178.638 188.224 178.518 187.042 179.33L161.953 154.242C162.73 152.908 163.175 151.359 163.175 149.707C163.175 148.056 162.73 146.507 161.953 145.174L187.043 120.085C188.226 120.896 189.856 120.776 190.906 119.724L196.486 114.143C197.674 112.958 197.674 111.033 196.486 109.847L193.993 107.352C192.808 106.166 190.882 106.166 189.697 107.352L184.114 112.935C183.064 113.985 182.944 115.615 183.754 116.797L158.665 141.886C157.332 141.11 155.783 140.665 154.133 140.665C152.481 140.665 150.932 141.11 149.598 141.886L124.509 116.798C125.32 115.614 125.2 113.985 124.15 112.935L118.569 107.352C117.381 106.166 115.458 106.166 114.271 107.352L111.777 109.847C110.59 111.033 110.59 112.958 111.777 114.143L117.358 119.724Z" fill="white" fill-opacity="0.8"/>
<rect width="31.2616" height="32.5519" rx="15.6308" transform="matrix(0.966584 -0.256352 0.256373 0.966578 66.2446 26.6353)" fill="white"/>
<g clip-path="url(#clip0_5961_126454)">
<path fill-rule="evenodd" clip-rule="evenodd" d="M77.0757 35.8098L80.6216 46.158C80.7348 46.4884 80.5587 46.848 80.2283 46.9612C79.8979 47.0744 79.5383 46.8983 79.4251 46.5679L75.8716 36.1977C75.7649 35.8862 75.7863 35.5451 75.9311 35.2494C76.0758 34.9537 76.3321 34.7277 76.6436 34.6209L80.4845 33.3049C80.7372 33.2195 81.0106 33.2172 81.2647 33.2984L81.2664 33.299L83.775 34.1088L88.7584 32.4014C89.0699 32.2946 89.411 32.316 89.7066 32.4608C90.0023 32.6056 90.2284 32.8619 90.3351 33.1733L90.9274 34.9017C91.0406 35.2321 90.8645 35.5917 90.5341 35.7049C90.2037 35.818 89.8441 35.6421 89.7309 35.3116L89.1463 33.6054L84.1777 35.3077L84.1752 35.3086C83.9225 35.394 83.6491 35.3963 83.3951 35.3151L83.3933 35.3145L80.8847 34.5047L77.0757 35.8098Z" fill="#D93914"/>
<path fill-rule="evenodd" clip-rule="evenodd" d="M80.5974 39.1095L80.6486 45.4803L92.062 41.5697L92.0087 35.1997L80.5974 39.1095ZM79.5596 38.3772C79.7102 38.1638 79.9244 38.0033 80.1716 37.9185L91.6293 33.9928C91.8152 33.9291 92.0131 33.9106 92.2071 33.9382C92.4018 33.966 92.5869 34.0397 92.747 34.1525C92.9075 34.2656 93.039 34.4152 93.1304 34.5892C93.2219 34.763 93.2706 34.9559 93.273 35.1519L93.2731 35.1544L93.3305 42.0149C93.3328 42.2871 93.1606 42.5302 92.9031 42.6184L80.2283 46.9612C80.036 47.0271 79.8237 46.9965 79.6578 46.879C79.4919 46.7614 79.3926 46.5713 79.391 46.368L79.3327 39.1082L79.3326 39.1066C79.3298 38.8458 79.4093 38.5904 79.5596 38.3772Z" fill="#D93914"/>
</g>
<rect width="31.2617" height="31.1702" rx="15.5851" transform="matrix(0.99921 -0.039743 0.0397468 0.99921 109.676 5.93066)" fill="white"/>
<path d="M123.291 21.6962L122.698 21.7197L122.726 22.4148L123.235 22.3945C123.234 22.4441 123.233 22.4921 123.232 22.5385L123.241 22.7795C123.243 22.8104 123.245 22.8427 123.25 22.8766L122.745 22.8967L122.772 23.5917L123.338 23.5693C123.412 23.9469 123.523 24.289 123.671 24.5956C123.819 24.9022 124.004 25.1624 124.226 25.3764C124.448 25.5903 124.706 25.7534 124.998 25.8655C125.293 25.9744 125.623 26.0216 125.987 26.0071C126.429 25.9896 126.816 25.8844 127.149 25.6918C127.482 25.4991 127.748 25.2286 127.947 24.8803L127.371 24.402C127.339 24.3692 127.309 24.3488 127.281 24.3406C127.256 24.3292 127.223 24.3244 127.183 24.326C127.133 24.3279 127.089 24.3436 127.05 24.373C127.014 24.4023 126.975 24.4379 126.934 24.4797L126.805 24.6195C126.757 24.6678 126.697 24.7135 126.624 24.7566C126.555 24.7996 126.47 24.837 126.369 24.8688C126.271 24.9006 126.153 24.9192 126.014 24.9247C125.683 24.9379 125.4 24.8285 125.165 24.5965C124.93 24.3645 124.761 24.0046 124.658 23.5167L126.127 23.4583C126.232 23.4541 126.314 23.4184 126.374 23.351C126.436 23.2805 126.465 23.2082 126.462 23.134L126.447 22.7494L124.561 22.8244L124.548 22.4862C124.546 22.4368 124.545 22.3888 124.547 22.3424L126.521 22.2639C126.629 22.2596 126.712 22.2237 126.772 22.1564C126.834 22.0859 126.863 22.0135 126.86 21.9394L126.845 21.5548L124.607 21.6438C124.685 21.189 124.834 20.8427 125.053 20.6051C125.276 20.3672 125.552 20.2418 125.883 20.2286C126.074 20.221 126.228 20.2396 126.344 20.2845C126.461 20.3294 126.557 20.3813 126.634 20.4401C126.71 20.4958 126.776 20.5474 126.83 20.5947C126.888 20.6419 126.95 20.6642 127.018 20.6615C127.086 20.6588 127.138 20.6428 127.174 20.6135C127.21 20.5811 127.244 20.5457 127.277 20.5073L127.712 20.0074C127.497 19.7313 127.23 19.516 126.911 19.3616C126.595 19.204 126.22 19.1339 125.784 19.1512C125.457 19.1642 125.153 19.2335 124.873 19.3591C124.597 19.4846 124.35 19.6584 124.133 19.8805C123.919 20.1025 123.739 20.368 123.594 20.677C123.451 20.9828 123.35 21.3225 123.291 21.6962Z" fill="#2B627B"/>
<path fill-rule="evenodd" clip-rule="evenodd" d="M132.784 16.998C132.843 17.0765 132.885 17.1694 132.902 17.2709C132.906 17.2975 132.909 17.3245 132.91 17.3518L133.323 27.7424C133.337 28.0822 133.215 28.4135 132.984 28.6634C132.753 28.9132 132.433 29.0612 132.093 29.0747L120.404 29.5396C120.064 29.5531 119.733 29.4311 119.483 29.2004C119.233 28.9696 119.085 28.6491 119.071 28.3093L118.503 14.0222C118.49 13.6824 118.612 13.3511 118.842 13.1013C119.073 12.8514 119.394 12.7035 119.733 12.6899L127.526 12.38L127.532 12.3798C127.67 12.3756 127.798 12.4155 127.904 12.4868C127.931 12.5049 127.956 12.525 127.981 12.5473L132.707 16.9124C132.736 16.9387 132.762 16.9674 132.784 16.998ZM119.784 13.9537C119.779 13.9539 119.775 13.9559 119.771 13.9593C119.768 13.9627 119.767 13.9673 119.767 13.9719L120.335 28.259C120.335 28.2637 120.337 28.2681 120.341 28.2712C120.344 28.2744 120.349 28.2761 120.353 28.2759L132.043 27.8109C132.048 27.8108 132.052 27.8087 132.055 27.8053C132.058 27.8019 132.06 27.7973 132.06 27.7927L131.672 18.0339L127.757 18.1896C127.408 18.2035 127.114 17.9318 127.1 17.5829L126.945 13.6688L119.784 13.9537ZM130.728 16.8057L128.244 14.5121L128.339 16.9008L130.728 16.8057Z" fill="#2B627B"/>
<rect width="31.2617" height="32.0815" rx="15.6308" transform="matrix(0.99921 -0.039743 0.0397468 0.99921 154.751 1.8335)" fill="white"/>
<path fill-rule="evenodd" clip-rule="evenodd" d="M164.249 10.3501C164.258 10.3412 164.269 10.3359 164.281 10.3354L171.781 10.0371L171.945 14.1488C171.959 14.4978 172.253 14.7694 172.602 14.7555L176.713 14.592L176.823 17.3484C176.837 17.6973 177.131 17.969 177.48 17.9551C177.829 17.9412 178.101 17.6471 178.087 17.2981L177.952 13.9149L177.952 13.9099C177.945 13.7339 177.867 13.5776 177.746 13.4677L172.82 8.91829C172.701 8.80683 172.539 8.74126 172.363 8.74826L172.363 8.74826L164.231 9.07169C163.884 9.08551 163.556 9.23672 163.32 9.49207C163.084 9.74742 162.96 10.086 162.973 10.4333L163.27 17.8874C163.284 18.2364 163.578 18.508 163.927 18.4942C164.276 18.4803 164.548 18.1861 164.534 17.8372L164.237 10.383C164.237 10.3709 164.241 10.359 164.249 10.3501ZM173.08 10.8805L173.183 13.4667L175.769 13.3638L173.08 10.8805ZM163.405 21.2756C163.391 20.9266 163.663 20.6325 164.011 20.6186L165.367 20.5647C165.894 20.5438 166.408 20.733 166.795 21.0909C167.183 21.4487 167.412 21.9458 167.433 22.4728C167.454 22.9999 167.265 23.5136 166.907 23.9011C166.549 24.2886 166.052 24.5181 165.525 24.539L164.801 24.5678L164.83 25.2912C164.844 25.6402 164.572 25.9344 164.223 25.9482C163.875 25.9621 163.58 25.6905 163.566 25.3415L163.513 23.9862L163.405 21.2756ZM164.751 23.3041L165.475 23.2753C165.666 23.2677 165.847 23.1841 165.978 23.0431C166.108 22.902 166.177 22.715 166.169 22.5231C166.162 22.3312 166.078 22.1503 165.937 22.02C165.796 21.8897 165.609 21.8208 165.417 21.8284L164.694 21.8572L164.751 23.3041ZM175.87 20.1469C175.521 20.1608 175.25 20.455 175.264 20.8039L175.358 23.1757L175.425 24.8698C175.439 25.2188 175.733 25.4904 176.082 25.4766C176.431 25.4627 176.703 25.1685 176.689 24.8196L176.647 23.7573L178.048 23.7016C178.397 23.6877 178.669 23.3935 178.655 23.0446C178.641 22.6956 178.347 22.4239 177.998 22.4378L176.597 22.4936L176.553 21.3855L178.292 21.3163C178.641 21.3024 178.913 21.0083 178.899 20.6593C178.885 20.3104 178.591 20.0387 178.242 20.0526L175.87 20.1469ZM169.602 20.3963C169.253 20.4101 168.982 20.7043 168.995 21.0532L169.157 25.1191C169.171 25.4681 169.465 25.7398 169.814 25.7259L171 25.6787C171.707 25.6506 172.373 25.3429 172.853 24.8233C173.333 24.3036 173.587 23.6147 173.559 22.9079C173.531 22.2012 173.223 21.5345 172.703 21.0546C172.184 20.5748 171.495 20.321 170.788 20.3491L169.602 20.3963ZM170.396 24.437L170.284 21.6348L170.838 21.6128C171.21 21.598 171.572 21.7315 171.845 21.9838C172.119 22.2361 172.28 22.5866 172.295 22.9582C172.31 23.3298 172.177 23.692 171.924 23.9652C171.672 24.2384 171.321 24.4002 170.95 24.415L170.396 24.437Z" fill="#D93914"/>
<rect width="31.2617" height="32.0815" rx="15.6308" transform="matrix(0.980906 0.19448 -0.194496 0.980903 201.41 11.5791)" fill="white"/>
<g clip-path="url(#clip1_5961_126454)">
<path fill-rule="evenodd" clip-rule="evenodd" d="M213.219 24.4763C213.699 24.1555 214.286 24.0383 214.852 24.1505C215.418 24.2627 215.916 24.5951 216.237 25.0746C216.557 25.5541 216.675 26.1414 216.562 26.7074L216.303 28.014L212.036 27.1679L212.295 25.8612C212.407 25.2953 212.74 24.7972 213.219 24.4763ZM211.16 28.2836C211.163 28.2843 211.166 28.2849 211.169 28.2856C211.173 28.2862 211.176 28.2868 211.179 28.2874L216.668 29.3757C216.671 29.3764 216.674 29.377 216.678 29.3777C216.681 29.3783 216.684 29.3789 216.687 29.3795L220.036 30.0434L218.34 38.5951L206.116 36.1715L207.812 27.6198L211.16 28.2836ZM210.795 26.9219L211.054 25.6153C211.232 24.7203 211.757 23.9326 212.516 23.4252C213.274 22.9179 214.203 22.7325 215.098 22.9099C215.993 23.0874 216.78 23.6131 217.288 24.3713C217.795 25.1296 217.98 26.0584 217.803 26.9533L217.544 28.26L220.29 28.8045C220.971 28.9394 221.413 29.6005 221.278 30.2811L219.579 38.8493C219.444 39.5299 218.783 39.9722 218.102 39.8373L205.862 37.4104C205.182 37.2755 204.739 36.6144 204.874 35.9338L206.573 27.3656C206.708 26.685 207.369 26.2427 208.05 26.3776L210.795 26.9219ZM212.348 32.0092C212.448 31.5068 212.936 31.1802 213.439 31.2798C213.941 31.3795 214.268 31.8675 214.168 32.37C214.069 32.8678 213.589 33.193 213.092 33.102L213.078 33.0992L213.065 33.0966C212.57 32.9912 212.25 32.5073 212.348 32.0092ZM212.23 34.1264C211.397 33.6847 210.915 32.7354 211.108 31.7633C211.343 30.5757 212.497 29.8038 213.685 30.0393C214.872 30.2747 215.644 31.4283 215.408 32.6159C215.216 33.5877 214.408 34.2811 213.471 34.372L213.212 35.6785C213.144 36.0211 212.811 36.2437 212.468 36.1758C212.126 36.1079 211.903 35.7751 211.971 35.4326L212.23 34.1264Z" fill="#2B627B"/>
</g>
<path d="M9.37587 245.213C-3.39913 233.431 3.20518 225.821 3.20518 225.821C3.20518 225.821 8.90889 216.575 28.9553 228.658C49.0017 240.741 68.4144 236.268 72.7839 234.432C77.1868 232.63 92.4968 221.215 101.136 220.581C105.939 220.214 111.709 223.852 106.639 233.598C96.1992 253.791 67.8473 256.094 67.8473 256.094C67.8473 256.094 54.105 258.664 39.9958 256.161C40.0292 256.194 22.1509 256.995 9.37587 245.213Z" fill="black"/>
<path d="M42.5625 247.616L47.0654 250.153L44.7973 254.859L41.0615 252.456L42.5625 247.616Z" fill="white"/>
<path d="M44.7988 255.36C44.6987 255.36 44.5987 255.326 44.5319 255.293L40.7962 252.89C40.5961 252.756 40.5294 252.523 40.5961 252.322L42.0637 247.483C42.0971 247.349 42.2304 247.216 42.3639 247.149C42.4973 247.082 42.6641 247.115 42.7975 247.182L47.3338 249.719C47.5673 249.852 47.6673 250.119 47.5339 250.386L45.2658 255.093C45.1991 255.226 45.099 255.326 44.9656 255.36C44.8989 255.326 44.8655 255.36 44.7988 255.36ZM41.6634 252.222L44.632 254.125L46.4332 250.353L42.8642 248.35L41.6634 252.222Z" fill="black"/>
<path fill-rule="evenodd" clip-rule="evenodd" d="M47.3686 249.586C46.8349 248.885 45.8343 248.885 45.3006 249.552C44.2999 250.854 42.9324 252.857 42.6655 254.592L45.0173 255.669C44.7377 256.037 44.7515 256.599 45.1322 256.929C47.7339 259.199 54.5383 264.773 59.5082 265.24C65.779 265.874 68.3474 259.933 64.745 257.263C61.7097 254.993 52.6037 251.856 49.8686 250.954C49.4403 250.823 48.947 251.016 48.7421 251.439L47.3686 249.586Z" fill="#D93914"/>
<path d="M52.6375 259.699C52.5708 259.699 52.5041 259.699 52.4374 259.665C52.2039 259.532 52.0705 259.231 52.2039 258.998L54.2386 254.725C54.372 254.492 54.6722 254.358 54.9057 254.492C55.1392 254.625 55.2726 254.926 55.1391 255.159L53.1045 259.432C53.0044 259.599 52.8376 259.699 52.6375 259.699Z" fill="black"/>
<path d="M62.0771 247.75C61.9437 247.75 61.8102 247.683 61.7102 247.583L61.0431 246.815C60.943 246.715 60.9097 246.582 60.9097 246.448C60.9097 246.315 60.9764 246.181 61.1098 246.114L82.2569 229.793C82.4904 229.626 82.7906 229.659 82.9574 229.893C83.1242 230.127 83.0908 230.427 82.8573 230.594L62.1438 246.582L62.444 246.949C62.6108 247.149 62.6108 247.483 62.4106 247.65C62.3106 247.683 62.1772 247.75 62.0771 247.75Z" fill="white"/>
<path d="M62.8112 248.551L53.6052 251.855L55.0395 256.862L66.1467 253.825L62.8112 248.551Z" fill="white"/>
<path fill-rule="evenodd" clip-rule="evenodd" d="M53.4067 251.221C54.0404 250.654 55.0411 250.787 55.4413 251.555C56.2419 252.99 57.2425 255.226 57.2091 256.929L54.7496 257.598C54.962 258.006 54.8387 258.553 54.409 258.831C51.4738 260.667 43.8354 265.006 38.8655 264.672C32.5947 264.238 31.0271 257.963 35.0297 255.927C38.3985 254.192 47.9048 252.623 50.74 252.156C51.1992 252.09 51.6262 252.347 51.7671 252.8L53.4067 251.221Z" fill="#D93914"/>
<path fill-rule="evenodd" clip-rule="evenodd" d="M53.4067 251.221C54.0404 250.654 55.0411 250.787 55.4413 251.555C56.2419 252.99 57.2425 255.226 57.2091 256.929L54.7496 257.598C54.962 258.006 54.8387 258.553 54.409 258.831C51.4738 260.667 43.8354 265.006 38.8655 264.672C32.5947 264.238 31.0271 257.963 35.0297 255.927C38.3985 254.192 47.9048 252.623 50.74 252.156C51.1992 252.09 51.6262 252.347 51.7671 252.8L53.4067 251.221Z" fill="white" fill-opacity="0.3"/>
<path d="M42.8303 246.982C42.797 246.982 42.7637 246.982 42.7303 246.982C42.4635 246.915 42.2967 246.648 42.33 246.381L42.5969 245.113C41.4962 244.245 36.593 240.373 28.9213 234.732C20.2156 228.324 18.3144 227.022 18.281 227.022C18.0475 226.855 17.9808 226.555 18.1476 226.321C18.3143 226.088 18.6145 226.021 18.848 226.188C18.8814 226.188 20.7826 227.523 29.4883 233.931C38.2273 240.34 43.364 244.478 43.4308 244.512C43.5642 244.645 43.6309 244.812 43.5975 245.012L43.264 246.581C43.264 246.815 43.0638 246.982 42.8303 246.982Z" fill="white"/>
<path d="M84.3253 216.075C83.6582 213.138 79.4554 202.29 76.3201 194.28C73.7851 187.905 67.6811 183.299 60.4097 182.364C55.0062 181.663 49.1356 181.53 43.4986 181.997C34.0925 182.731 26.0206 188.506 22.9186 196.75C20.1167 204.193 17.048 213.305 16.9813 217.944C16.9146 222.884 19.8832 227.557 23.1187 231.229C27.2214 235.835 33.0585 238.705 39.3626 239.306C48.3685 240.14 62.4443 240.975 68.8152 238.905C78.6549 235.668 85.9263 223.185 84.3253 216.075Z" fill="#D93914"/>
<path d="M84.3253 216.075C83.6582 213.138 79.4554 202.29 76.3201 194.28C73.7851 187.905 67.6811 183.299 60.4097 182.364C55.0062 181.663 49.1356 181.53 43.4986 181.997C34.0925 182.731 26.0206 188.506 22.9186 196.75C20.1167 204.193 17.048 213.305 16.9813 217.944C16.9146 222.884 19.8832 227.557 23.1187 231.229C27.2214 235.835 33.0585 238.705 39.3626 239.306C48.3685 240.14 62.4443 240.975 68.8152 238.905C78.6549 235.668 85.9263 223.185 84.3253 216.075Z" fill="white" fill-opacity="0.4"/>
<path d="M79.2889 202.424H36.6944C34.7598 202.424 33.1921 203.993 33.1921 205.928V234.099C33.1921 236.035 34.7598 237.603 36.6944 237.603H79.2889C81.2235 237.603 82.7912 236.035 82.7912 234.099V205.928C82.7912 203.993 81.2235 202.424 79.2889 202.424Z" fill="white"/>
<path d="M82.1226 237.437H33.1572C31.9565 237.437 30.9558 238.439 30.9558 239.64C30.9558 240.842 31.9565 241.843 33.1572 241.843H82.1226C83.3233 241.843 84.324 240.842 84.324 239.64C84.324 238.405 83.3567 237.437 82.1226 237.437Z" fill="#D93914"/>
<path d="M82.1226 237.437H33.1572C31.9565 237.437 30.9558 238.439 30.9558 239.64C30.9558 240.842 31.9565 241.843 33.1572 241.843H82.1226C83.3233 241.843 84.324 240.842 84.324 239.64C84.324 238.405 83.3567 237.437 82.1226 237.437Z" fill="white" fill-opacity="0.7"/>
<path d="M59.8405 218.511C59.8405 219.913 58.7064 221.048 57.3055 221.048C55.9046 221.048 54.7705 219.913 54.7705 218.511C54.7705 217.11 55.9046 215.975 57.3055 215.975C58.7064 215.975 59.8405 217.11 59.8405 218.511Z" fill="#D93914"/>
<path d="M59.8405 218.511C59.8405 219.913 58.7064 221.048 57.3055 221.048C55.9046 221.048 54.7705 219.913 54.7705 218.511C54.7705 217.11 55.9046 215.975 57.3055 215.975C58.7064 215.975 59.8405 217.11 59.8405 218.511Z" fill="white" fill-opacity="0.7"/>
<path d="M61.3316 176.175C61.4417 176.299 61.5611 176.367 61.6512 176.402C61.8618 176.486 62.297 176.552 62.8281 176.044C63.1406 175.746 63.4223 175.307 63.6196 174.807C63.8169 174.307 63.911 173.795 63.8864 173.362C63.8449 172.629 63.4837 172.379 63.2691 172.295C63.0585 172.212 62.6232 172.146 62.0921 172.653C61.7796 172.952 61.4979 173.39 61.3006 173.89C61.1034 174.39 61.0093 174.903 61.0338 175.336C61.0574 175.752 61.1846 176.012 61.3277 176.174L61.3316 176.175ZM62.982 173.079C63.0755 173.184 63.145 173.748 62.8499 174.501C62.5414 175.281 62.0819 175.643 61.9534 175.628C61.8556 175.559 61.7678 174.975 62.0763 174.195C62.3848 173.415 62.8443 173.053 62.9728 173.068C62.9765 173.072 62.9783 173.074 62.982 173.079Z" fill="black"/>
<path d="M62.5142 169.181C62.5476 169.047 59.9459 166.277 59.9459 166.277L55.2094 166.644C52.3742 166.51 52.0741 171.984 52.0741 171.984C52.0741 171.984 52.2742 172.585 52.3742 173.253C51.8406 175.022 50.8399 177.358 48.9387 179.528C47.1042 181.63 45.6032 182.198 45.7032 183.366C45.9033 185.302 50.2395 186.303 52.2075 186.77C54.2755 187.271 59.2788 188.139 59.7791 186.837C59.8792 186.57 60.0793 185.469 55.2762 182.298L55.9766 180.829H56.01C57.3108 181.597 58.7451 181.03 59.2454 179.628L60.0793 177.124L60.713 177.291C61.1133 177.391 61.4469 177.058 61.4135 176.657C61.0132 173.686 62.2807 170.215 62.5142 169.181Z" fill="white"/>
<path d="M58.8112 175.605C58.9305 175.739 59.0751 175.844 59.2455 175.912C60.0384 176.223 61.0159 175.569 61.4687 174.417C61.9234 173.267 61.6582 172.119 60.8656 171.803C60.4576 171.643 59.9774 171.735 59.5458 172.058C59.1676 172.341 58.8445 172.783 58.6423 173.298C58.285 174.203 58.371 175.107 58.8112 175.605ZM60.6833 172.667C60.8906 172.902 60.943 173.488 60.697 174.113C60.407 174.847 59.8521 175.26 59.5496 175.139C59.2471 175.019 59.1259 174.338 59.4139 173.606C59.56 173.236 59.7875 172.917 60.0422 172.728C60.2375 172.581 60.427 172.528 60.5591 172.581C60.605 172.6 60.6464 172.63 60.6812 172.669L60.6833 172.667Z" fill="black"/>
<path d="M60.852 174.424C60.9565 174.543 61.1218 174.596 61.2817 174.547C61.3495 174.527 61.4552 174.53 61.4772 174.555C61.6211 174.734 61.8842 174.76 62.0618 174.614C62.2393 174.468 62.2671 174.207 62.1211 174.029C61.8076 173.641 61.2902 173.67 61.0363 173.751C60.8164 173.82 60.6963 174.052 60.7652 174.272C60.7832 174.33 60.8135 174.381 60.8502 174.422L60.852 174.424Z" fill="black"/>
<path d="M55.3528 171.374C55.3913 171.417 55.4381 171.454 55.4974 171.479L59.2387 173.127C59.4488 173.218 59.6939 173.123 59.7852 172.913C59.8765 172.702 59.7816 172.457 59.5715 172.366L55.8302 170.718C55.6201 170.627 55.375 170.722 55.2837 170.932C55.2155 171.085 55.25 171.257 55.3528 171.374Z" fill="black"/>
<path d="M59.8947 174.103C59.971 174.162 60.1627 174.041 60.3229 173.833C60.4831 173.626 60.5511 173.41 60.4748 173.351C60.3985 173.292 60.2068 173.412 60.0466 173.62C59.8864 173.828 59.8184 174.044 59.8947 174.103Z" fill="black"/>
<path fill-rule="evenodd" clip-rule="evenodd" d="M59.6624 171.592L59.6649 171.592L59.675 171.592C59.6842 171.592 59.6982 171.592 59.7165 171.592C59.753 171.592 59.8064 171.594 59.8721 171.598C60.0039 171.605 60.1832 171.623 60.3747 171.663C60.7695 171.746 61.1642 171.912 61.3476 172.223C61.3965 172.306 61.5035 172.334 61.5865 172.285C61.6696 172.236 61.6972 172.129 61.6483 172.046C61.3857 171.6 60.8601 171.408 60.446 171.321C60.2331 171.277 60.0359 171.257 59.8923 171.249C59.8202 171.245 59.7611 171.243 59.7197 171.243C59.6989 171.243 59.6825 171.243 59.6711 171.243L59.6577 171.243L59.6539 171.243L59.6528 171.243L59.6524 171.243C59.6523 171.243 59.6521 171.243 59.6573 171.418L59.6524 171.243C59.556 171.246 59.48 171.326 59.4828 171.423C59.4856 171.519 59.5661 171.595 59.6624 171.592C59.6624 171.592 59.6624 171.592 59.6624 171.592Z" fill="black"/>
<path fill-rule="evenodd" clip-rule="evenodd" d="M56.7806 177.616C56.7669 177.711 56.8328 177.8 56.928 177.814L56.9281 177.814L56.9288 177.814L56.9342 177.815C56.9395 177.816 56.9479 177.817 56.9593 177.82C56.982 177.824 57.0163 177.832 57.0598 177.844C57.1469 177.867 57.2701 177.908 57.4107 177.973C57.6922 178.104 58.0395 178.335 58.3102 178.733C58.3644 178.813 58.4729 178.834 58.5526 178.78C58.6324 178.725 58.6531 178.617 58.5989 178.537C58.2841 178.074 57.8809 177.807 57.5581 177.657C57.3966 177.581 57.2543 177.535 57.1514 177.507C57.0999 177.493 57.0581 177.483 57.0284 177.477C57.0136 177.474 57.0018 177.472 56.9933 177.471L56.9832 177.469L56.9801 177.468L56.979 177.468L56.9786 177.468L56.9784 177.468C56.9783 177.468 56.9783 177.468 56.9534 177.641L56.9783 177.468C56.8829 177.454 56.7944 177.521 56.7806 177.616Z" fill="black"/>
<path d="M55.8408 172.285C55.8741 172.151 55.9075 171.917 55.9075 171.65C55.9742 170.249 55.4072 169.548 55.7741 168.98C55.9742 168.68 56.3411 168.58 56.5412 168.513C57.5752 168.246 58.4758 169.047 60.4104 170.349C62.8454 171.951 63.1122 172.151 63.6792 172.151C65.1135 172.151 66.4477 170.849 67.0147 169.514C67.1815 169.147 67.9487 167.178 66.7145 165.476C65.8473 164.241 64.2462 163.673 62.7119 163.974C62.7453 163.54 62.7119 162.906 62.3117 162.438C61.3777 161.303 59.0762 162.004 58.2757 162.238C57.5419 162.472 56.141 163.006 54.8068 164.374C54.64 164.14 53.9395 163.306 52.8722 163.239C51.2711 163.139 50.2371 164.775 50.1371 164.942C49.0363 166.811 49.9369 169.18 50.6374 171.016C51.1377 172.318 51.7381 173.319 52.1384 173.953C52.5386 173.887 52.9389 173.853 53.3391 173.787C53.1056 173.419 52.7388 172.718 52.7721 171.75C52.7721 171.45 52.8055 170.182 53.4726 169.982C53.9395 169.815 54.4732 170.282 54.5399 170.349C55.3404 171.05 55.107 172.251 55.107 172.385C55.3405 172.318 55.5739 172.285 55.8408 172.285Z" fill="black"/>
<path d="M52.7383 176.323V176.557C52.7383 177.091 52.8383 178.059 53.2052 178.459L56.0071 180.829L52.7383 176.323Z" fill="white"/>
<defs>
<clipPath id="clip0_5961_126454">
<rect width="20.2356" height="20.2356" fill="white" transform="matrix(0.946011 -0.324131 0.324158 0.946005 72.6746 32.0682)"/>
</clipPath>
<clipPath id="clip1_5961_126454">
<rect width="20.2356" height="20.2356" fill="white" transform="matrix(0.980906 0.194481 -0.194496 0.980903 205.666 18.4611)"/>
</clipPath>
</defs>
</svg>
