<svg width="500" height="79" viewBox="0 0 500 79" fill="none" xmlns="http://www.w3.org/2000/svg">
<path d="M109.971 62.3731C103.921 62.3731 99.1262 60.5467 95.7016 56.8938C92.1629 53.241 90.2223 48.2183 89.8799 41.8258C89.8799 41.0267 89.8799 40.1135 89.8799 38.972C89.8799 37.8304 89.8799 36.8031 89.8799 36.1182C90.1082 32.0087 91.0214 28.3558 92.7337 25.2737C94.446 22.1916 96.729 19.7944 99.5828 18.0821C102.551 16.3699 105.975 15.5708 109.856 15.5708C113.738 15.5708 117.961 16.484 120.929 18.3105C123.897 20.1369 126.18 22.7624 127.778 26.1869C129.376 29.6115 130.176 33.6068 130.176 38.1729V39.6569C130.176 40.3418 129.947 40.7984 129.605 41.1408C129.262 41.4833 128.806 41.7116 128.121 41.7116H98.0988V42.5107C98.213 44.9079 98.7837 47.0768 99.697 49.1315C100.61 51.1862 101.98 52.8985 103.692 54.1542C105.405 55.4098 107.573 56.0948 109.856 56.0948C112.14 56.0948 113.624 55.7523 115.107 55.1815C116.477 54.4966 117.619 53.8117 118.532 53.0127C119.445 52.2136 120.016 51.6428 120.244 51.1862C120.815 50.5013 121.158 50.0447 121.5 49.9305C121.842 49.8164 122.299 49.7022 122.87 49.7022H127.093C127.664 49.7022 128.007 49.8164 128.463 50.1589C128.806 50.5013 129.034 50.9579 128.92 51.5287C128.92 52.4419 128.349 53.4693 127.55 54.7249C126.637 55.9806 125.495 57.2363 123.897 58.3778C122.299 59.6335 120.358 60.5467 117.961 61.3457C115.564 62.1448 112.939 62.4873 109.971 62.4873V62.3731ZM98.0988 35.6615H121.842V35.4332C121.842 32.8078 121.386 30.5247 120.358 28.47C119.445 26.4152 118.075 24.8171 116.249 23.6756C114.423 22.5341 112.368 21.8492 109.856 21.8492C107.345 21.8492 105.29 22.4199 103.464 23.6756C101.752 24.8171 100.382 26.4152 99.4687 28.47C98.5554 30.5247 98.0988 32.8078 98.0988 35.4332V35.6615Z" fill="white"/>
<path d="M140.906 62.3724C140.221 62.3724 139.765 62.1441 139.422 61.8016C139.08 61.4592 138.852 61.0026 138.852 60.3177V3.69829C138.852 3.01337 139.08 2.55677 139.422 2.21431C139.765 1.87186 140.221 1.64355 140.906 1.64355H160.655C166.59 1.64355 171.385 2.55677 175.038 4.3832C178.691 6.20964 181.316 8.83513 183.028 12.3738C184.741 15.9126 185.54 20.1362 185.654 25.273C185.654 27.8985 185.654 30.1815 185.654 32.1221C185.654 34.0627 185.654 36.3458 185.654 38.8571C185.54 44.2222 184.627 48.56 183.028 52.0987C181.43 55.6374 178.805 58.1488 175.266 59.8611C171.727 61.5733 167.047 62.3724 161.111 62.3724H141.02H140.906ZM147.413 54.9525H160.655C164.65 54.9525 167.846 54.3818 170.243 53.3544C172.641 52.2129 174.353 50.5006 175.38 48.1034C176.408 45.7062 176.978 42.51 177.092 38.5146C177.207 36.8024 177.321 35.2042 177.321 33.9486V30.0674C177.321 28.8117 177.321 27.3277 177.092 25.6155C176.978 20.022 175.608 15.7984 173.097 13.1729C170.586 10.4333 166.248 9.17758 160.312 9.17758H147.527V55.1808L147.413 54.9525Z" fill="white"/>
<path d="M212.48 62.3731C208.028 62.3731 204.375 61.5741 201.407 59.8618C198.439 58.1495 196.156 55.8665 194.672 52.8985C193.074 49.9306 192.275 46.506 192.046 42.739C192.046 41.7116 192.046 40.4559 192.046 38.972C192.046 37.488 192.046 36.2323 192.046 35.3191C192.275 31.4379 193.074 28.0134 194.672 25.0454C196.27 22.0775 198.553 19.7944 201.521 18.0821C204.489 16.3699 208.142 15.5708 212.48 15.5708C216.817 15.5708 220.47 16.3699 223.438 18.0821C226.406 19.7944 228.689 22.0775 230.287 25.0454C231.885 28.0134 232.799 31.4379 232.913 35.3191C232.913 36.2323 232.913 37.488 232.913 38.972C232.913 40.4559 232.913 41.7116 232.913 42.739C232.684 46.506 231.885 49.9306 230.287 52.8985C228.689 55.8665 226.52 58.1495 223.552 59.8618C220.584 61.5741 216.932 62.3731 212.48 62.3731ZM212.48 55.6381C216.018 55.6381 218.872 54.4966 221.041 52.2136C223.21 49.9305 224.351 46.6201 224.466 42.1682C224.466 41.255 224.466 40.2276 224.466 38.8578C224.466 37.488 224.466 36.4606 224.466 35.5474C224.237 31.2096 223.096 27.7851 221.041 25.502C218.872 23.219 216.018 22.0775 212.48 22.0775C208.941 22.0775 205.973 23.219 203.804 25.502C201.635 27.7851 200.494 31.0955 200.379 35.5474C200.379 36.4606 200.379 37.488 200.379 38.8578C200.379 40.2276 200.379 41.255 200.379 42.1682C200.494 46.6201 201.635 49.9305 203.804 52.2136C205.973 54.4966 208.827 55.6381 212.48 55.6381Z" fill="white"/>
<path d="M259.167 62.3731C255.058 62.3731 251.519 61.574 248.551 59.9759C245.583 58.3778 243.3 56.0948 241.702 53.1268C240.104 50.1589 239.191 46.6201 239.077 42.3965C239.077 41.4833 239.077 40.3418 239.077 38.972C239.077 37.6021 239.077 36.3465 239.077 35.5474C239.191 31.4379 240.104 27.7851 241.702 24.8171C243.3 21.8492 245.583 19.5661 248.551 17.968C251.519 16.3699 255.058 15.5708 259.167 15.5708C263.277 15.5708 265.446 16.0274 267.843 16.9406C270.24 17.8538 272.181 19.1095 273.779 20.4793C275.377 21.9633 276.519 23.4473 277.318 25.1596C278.117 26.8718 278.573 28.47 278.573 29.9539C278.573 30.5247 278.459 30.9813 278.002 31.3238C277.546 31.6662 277.089 31.8945 276.519 31.8945H272.409C271.838 31.8945 271.382 31.7804 271.153 31.5521C270.811 31.3238 270.583 30.8672 270.24 30.1823C269.213 27.3285 267.729 25.3879 266.017 24.2463C264.19 23.1048 262.021 22.5341 259.282 22.5341C256.542 22.5341 253.003 23.5614 250.834 25.7303C248.665 27.8992 247.524 31.3238 247.296 36.004C247.296 38.0587 247.296 40.1135 247.296 42.0541C247.524 46.8484 248.665 50.273 250.834 52.4419C253.003 54.6108 255.857 55.6381 259.282 55.6381C262.706 55.6381 264.19 55.0674 266.017 53.9259C267.843 52.7843 269.213 50.7296 270.24 47.99C270.583 47.3051 270.811 46.8484 271.153 46.6201C271.496 46.2777 271.838 46.1635 272.409 46.1635H276.519C277.089 46.1635 277.546 46.3918 278.002 46.7343C278.459 47.0768 278.573 47.5334 278.573 48.2183C278.573 49.4739 278.231 50.7296 277.774 51.9853C277.318 53.241 276.519 54.4966 275.605 55.8665C274.578 57.1221 273.322 58.3778 271.838 59.291C270.354 60.3184 268.528 61.1174 266.473 61.6882C264.418 62.259 262.021 62.6014 259.282 62.6014L259.167 62.3731Z" fill="white"/>
<path d="M292.272 61.4593C291.587 61.4593 291.13 61.231 290.788 60.8886C290.445 60.5461 290.217 60.0895 290.217 59.4046V2.78521C290.217 2.1003 290.445 1.64368 290.788 1.30123C291.13 0.958773 291.587 0.730469 292.272 0.730469H314.303C318.526 0.730469 322.293 1.41538 325.49 2.78521C328.686 4.15503 331.083 6.20977 332.795 8.94942C334.508 11.6891 335.421 15.1136 335.421 19.2231C335.421 23.3326 334.508 26.7571 332.795 29.4968C331.083 32.2364 328.572 34.2911 325.49 35.661C322.293 37.0308 318.641 37.7157 314.303 37.7157H298.892V59.4046C298.892 59.9753 298.664 60.432 298.322 60.8886C297.979 61.3452 297.408 61.4593 296.838 61.4593H292.272ZM298.892 30.5241H313.846C318.07 30.5241 321.38 29.6109 323.435 27.6703C325.604 25.7298 326.631 22.9901 326.631 19.3372C326.631 15.6844 325.604 12.9447 323.549 11.0041C321.494 9.06356 318.184 8.0362 313.846 8.0362H298.892V30.5241Z" fill="white"/>
<path d="M358.023 62.3731C351.973 62.3731 347.178 60.5467 343.754 56.8938C340.215 53.241 338.275 48.2183 337.932 41.8258C337.932 41.0267 337.932 40.1135 337.932 38.972C337.932 37.8304 337.932 36.8031 337.932 36.1182C338.16 32.0087 339.074 28.3558 340.786 25.2737C342.498 22.1916 344.781 19.7944 347.635 18.0821C350.603 16.3699 354.028 15.5708 357.909 15.5708C361.79 15.5708 366.014 16.484 368.981 18.3105C371.949 20.1369 374.232 22.7624 375.831 26.1869C377.429 29.6115 378.228 33.6068 378.228 38.1729V39.6569C378.228 40.3418 378 40.7984 377.657 41.1408C377.315 41.4833 376.858 41.7116 376.173 41.7116H346.151V42.5107C346.265 44.9079 346.836 47.0768 347.749 49.1315C348.662 51.1862 350.032 52.8985 351.745 54.1542C353.457 55.4098 355.626 56.0948 357.909 56.0948C360.192 56.0948 361.676 55.7523 363.16 55.1815C364.53 54.4966 365.671 53.8117 366.584 53.0127C367.498 52.2136 368.068 51.6428 368.297 51.1862C368.867 50.5013 369.21 50.0447 369.552 49.9305C369.895 49.8164 370.351 49.7022 370.922 49.7022H375.146C375.716 49.7022 376.059 49.8164 376.516 50.1589C376.858 50.5013 377.086 50.9579 376.972 51.5287C376.972 52.4419 376.401 53.4693 375.602 54.7249C374.689 55.9806 373.548 57.2363 371.949 58.3778C370.351 59.6335 368.411 60.5467 366.014 61.3457C363.616 62.1448 360.991 62.4873 358.023 62.4873V62.3731ZM346.151 35.6615H369.895V35.4332C369.895 32.8078 369.438 30.5247 368.411 28.47C367.498 26.4152 366.128 24.8171 364.301 23.6756C362.475 22.5341 360.42 21.8492 357.909 21.8492C355.397 21.8492 353.343 22.4199 351.516 23.6756C349.804 24.8171 348.434 26.4152 347.521 28.47C346.608 30.5247 346.151 32.8078 346.151 35.4332V35.6615Z" fill="white"/>
<path d="M386.218 61.4599C385.648 61.4599 385.191 61.2316 384.734 60.8892C384.392 60.5467 384.164 60.0901 384.164 59.4052V18.3105C384.164 17.7397 384.392 17.2831 384.734 16.8265C385.077 16.3699 385.533 16.2558 386.218 16.2558H390.214C390.784 16.2558 391.241 16.4841 391.698 16.8265C392.154 17.2831 392.268 17.7397 392.268 18.3105V22.0775C393.41 20.1369 395.008 18.6529 397.063 17.6256C399.117 16.5982 401.515 16.1416 404.483 16.1416H407.907C408.478 16.1416 408.935 16.3699 409.391 16.7124C409.734 17.0548 409.962 17.5114 409.962 18.1963V21.7351C409.962 22.3058 409.734 22.7624 409.391 23.1049C409.049 23.4473 408.592 23.6756 407.907 23.6756H402.656C399.574 23.6756 397.063 24.5888 395.236 26.4153C393.41 28.2417 392.497 30.7531 392.497 33.8352V59.2911C392.497 59.8618 392.268 60.3184 391.926 60.775C391.469 61.1175 391.013 61.3458 390.442 61.3458H386.218V61.4599Z" fill="white"/>
<path d="M432.336 62.3729C429.14 62.3729 426.286 61.9163 424.003 61.1172C421.72 60.3182 419.779 59.2908 418.409 58.1493C416.925 57.0078 415.898 55.8662 415.099 54.7247C414.414 53.5832 413.958 52.67 413.958 51.9851C413.958 51.3002 414.072 50.8435 414.528 50.5011C414.985 50.1586 415.442 49.9303 415.898 49.9303H419.779C420.122 49.9303 420.35 49.9303 420.464 50.0445C420.692 50.0445 420.921 50.3869 421.263 50.7294C422.062 51.5285 422.861 52.3275 423.775 53.1266C424.688 53.9257 425.829 54.6106 427.199 55.0672C428.569 55.6379 430.281 55.8662 432.222 55.8662C435.19 55.8662 437.587 55.2955 439.528 54.154C441.468 53.0124 442.381 51.4143 442.381 49.1313C442.381 46.8482 442.039 46.5058 441.24 45.7067C440.441 44.7935 439.071 44.1086 437.13 43.3095C435.19 42.6246 432.45 41.9397 428.911 41.1406C425.487 40.3416 422.747 39.3142 420.692 38.1727C418.638 37.0312 417.268 35.5472 416.355 33.9491C415.442 32.3509 415.099 30.4103 415.099 28.3556C415.099 26.3009 415.784 24.132 417.04 22.1914C418.295 20.2508 420.122 18.5385 422.633 17.2829C425.144 16.0272 428.227 15.3423 431.879 15.3423C435.532 15.3423 437.473 15.6847 439.642 16.4838C441.811 17.2829 443.523 18.1961 444.893 19.3376C446.263 20.4791 447.29 21.6206 447.975 22.648C448.66 23.7895 449.002 24.7027 449.116 25.3877C449.116 25.9584 449.002 26.415 448.546 26.8716C448.089 27.2141 447.632 27.4424 447.176 27.4424H443.523C443.066 27.4424 442.838 27.4424 442.495 27.2141C442.267 26.9858 442.039 26.8716 441.811 26.6433C441.24 25.8443 440.555 25.1594 439.756 24.3603C438.957 23.5612 437.929 22.9905 436.674 22.5339C435.418 22.0772 433.82 21.8489 431.765 21.8489C428.911 21.8489 426.743 22.4197 425.259 23.6754C423.775 24.931 423.09 26.415 423.09 28.2415C423.09 30.0679 423.432 30.2962 424.003 31.2094C424.688 32.1226 425.829 32.8075 427.656 33.6066C429.482 34.2915 432.108 35.0906 435.646 35.8896C439.413 36.6887 442.495 37.6019 444.664 38.9717C446.833 40.2274 448.431 41.7114 449.345 43.4237C450.258 45.136 450.714 47.0765 450.714 49.2454C450.714 51.4143 450.03 53.9257 448.66 55.9804C447.29 58.0351 445.235 59.6333 442.381 60.7748C439.642 61.9163 436.217 62.6012 432.108 62.6012L432.336 62.3729Z" fill="white"/>
<path d="M477.426 62.3731C472.974 62.3731 469.321 61.5741 466.353 59.8618C463.385 58.1495 461.102 55.8665 459.618 52.8985C458.02 49.9306 457.221 46.506 456.993 42.739C456.993 41.7116 456.993 40.4559 456.993 38.972C456.993 37.488 456.993 36.2323 456.993 35.3191C457.221 31.4379 458.02 28.0134 459.618 25.0454C461.216 22.0775 463.499 19.7944 466.467 18.0821C469.435 16.3699 473.088 15.5708 477.426 15.5708C481.764 15.5708 485.416 16.3699 488.384 18.0821C491.352 19.7944 493.635 22.0775 495.234 25.0454C496.832 28.0134 497.745 31.4379 497.859 35.3191C497.859 36.2323 497.859 37.488 497.859 38.972C497.859 40.4559 497.859 41.7116 497.859 42.739C497.631 46.506 496.832 49.9306 495.234 52.8985C493.635 55.8665 491.467 58.1495 488.499 59.8618C485.531 61.5741 481.878 62.3731 477.426 62.3731ZM477.426 55.6381C480.965 55.6381 483.818 54.4966 485.987 52.2136C488.156 49.9305 489.298 46.6201 489.412 42.1682C489.412 41.255 489.412 40.2276 489.412 38.8578C489.412 37.488 489.412 36.4606 489.412 35.5474C489.184 31.2096 488.042 27.7851 485.987 25.502C483.818 23.219 480.965 22.0775 477.426 22.0775C473.887 22.0775 470.919 23.219 468.75 25.502C466.581 27.7851 465.44 31.0955 465.326 35.5474C465.326 36.4606 465.326 37.488 465.326 38.8578C465.326 40.2276 465.326 41.255 465.326 42.1682C465.44 46.6201 466.581 49.9305 468.75 52.2136C470.919 54.4966 473.773 55.6381 477.426 55.6381Z" fill="white"/>
<path d="M32.0049 44.3368C26.4114 45.25 20.1331 46.2774 19.9048 51.1859C20.1331 53.1265 21.2746 54.6104 23.2152 55.4095C26.1831 56.6652 30.0643 56.0944 32.6898 54.0397C35.5436 51.7567 36.7993 48.1038 36.1144 43.6519C34.9728 43.9943 33.4889 44.2226 31.8907 44.4509L32.0049 44.3368Z" fill="white"/>
<path d="M59.4012 28.9265C59.1729 27.1001 58.0314 25.5019 56.0908 24.7029C54.8351 24.2463 53.5795 24.018 52.3238 24.1321C50.2691 24.1321 48.3285 24.9312 46.7303 26.1869C43.8765 28.4699 42.6209 32.1228 43.3058 36.5747C44.5615 36.2322 45.9313 36.0039 47.5294 35.7756C53.1229 34.8624 59.4012 33.835 59.6295 28.9265H59.4012Z" fill="white"/>
<path d="M39.3108 0.388184C31.5484 0.388184 24.0144 2.67122 17.5077 6.89484C11.1152 11.1185 5.9784 17.1685 3.01044 24.3601C0.0424936 31.5517 -0.75657 39.314 0.727405 46.848C2.21138 54.3821 5.97839 61.3453 11.4577 66.7105C16.937 72.1898 23.9003 75.8426 31.5484 77.3266C39.1966 78.8106 47.0731 78.0115 54.2647 75.1577C61.4563 72.1898 67.5063 67.2812 71.8441 60.8887C76.1819 54.4962 78.4649 46.9622 78.4649 39.314C78.4649 31.6658 77.4375 29.1545 75.4969 24.4742C73.5564 19.794 70.5884 15.4562 67.0497 11.9175C63.3968 8.26467 59.0591 5.41087 54.3788 3.47028C49.5845 1.5297 44.5618 0.502334 39.4249 0.502334L39.3108 0.388184ZM45.475 48.2179C47.1873 49.7018 50.8401 50.1584 53.8081 49.1311C55.1779 48.6745 57.5751 47.6471 58.1458 45.2499C58.1458 44.7933 58.4883 44.4508 58.8308 44.2225C59.1732 43.9942 59.5157 43.7659 59.9723 43.7659C60.3147 43.7659 60.7713 43.7659 61.1138 43.7659C62.4836 43.6518 63.9676 43.5376 64.5384 44.2225C65.6799 46.049 64.7667 48.5603 62.027 51.4141C59.5157 53.8113 55.4062 55.2953 51.1826 55.5236C46.959 55.7519 43.0778 54.6104 40.4523 52.5556C38.8542 56.2085 35.8862 59.0623 32.2334 60.5463C30.4069 61.3453 28.4663 61.8019 26.4116 61.9161C24.1286 62.0302 21.8455 61.6878 19.6766 60.7746C17.9644 60.0897 16.3662 59.0623 15.1106 57.5783C13.969 56.0943 13.17 54.3821 12.8275 52.5556C12.4851 50.9575 12.7134 49.2452 13.2841 47.6471C13.8549 46.1631 14.8822 44.7933 16.2521 43.7659C19.5625 40.6838 26.7541 39.314 32.4617 38.4008C33.7173 38.1725 34.8588 37.9442 35.8862 37.7159C35.8862 35.547 35.4296 32.8073 33.8315 31.5517C32.1192 30.0677 28.4663 29.6111 25.4984 30.6385C24.1286 31.0951 21.7314 32.1224 21.1606 34.5196C21.1606 34.9762 20.8182 35.3187 20.4757 35.547C20.1332 35.7753 19.7908 36.0036 19.3342 36.0036C18.9917 36.0036 18.5351 36.0036 18.1927 36.0036C16.8228 36.1177 15.3389 36.2319 14.7681 35.547C13.6266 33.7206 14.5398 31.2092 17.2794 28.3554C19.7908 25.9582 23.9003 24.4742 28.1239 24.2459C32.3475 24.0176 36.2287 25.1592 38.8542 27.2139C40.4523 23.561 43.4202 20.7072 47.0731 19.2233C49.0137 18.31 51.1826 17.8534 53.3515 17.8534C55.5204 17.8534 57.6892 18.1959 59.6298 18.995C61.3421 19.6799 62.9402 20.7072 64.1959 22.1912C65.3374 23.6752 66.1365 25.3875 66.4789 27.2139C66.8214 28.812 66.5931 30.5243 66.0223 32.1224C65.4516 33.6064 64.4242 34.9762 63.0544 36.0036C59.744 39.0857 52.5524 40.4555 46.8448 41.3687C45.5891 41.597 44.4476 41.8254 43.4202 42.0537C43.4202 44.2225 43.8769 46.9622 45.475 48.2179Z" fill="white"/>
</svg>
